<mxfile host="app.diagrams.net" modified="2022-04-26T08:34:14.589Z" agent="5.0 (Windows NT 10.0; Win64; x64) AppleWebKit/537.36 (KHTML, like Gecko) Chrome/100.0.4896.127 Safari/537.36 Edg/100.0.1185.50" etag="VEdTi-7SIg_x9Wd2FAvi" version="17.4.0" type="github">
  <diagram id="wP4Usmq05pLcS0F0dY9k" name="第 1 页">
    <mxGraphModel dx="1038" dy="547" grid="0" gridSize="10" guides="1" tooltips="1" connect="1" arrows="1" fold="1" page="1" pageScale="1" pageWidth="827" pageHeight="1169" math="0" shadow="0">
      <root>
        <mxCell id="0" />
        <mxCell id="1" parent="0" />
        <mxCell id="swF7MC4VHe0emCzeMFWX-1" value="&lt;font style=&quot;font-size: 16px&quot;&gt;状态(State)：&lt;/font&gt;" style="text;html=1;align=center;verticalAlign=middle;resizable=0;points=[];autosize=1;strokeColor=none;fillColor=none;fontFamily=Helvetica;fontStyle=1" vertex="1" parent="1">
          <mxGeometry x="211" y="191" width="108" height="19" as="geometry" />
        </mxCell>
        <mxCell id="swF7MC4VHe0emCzeMFWX-2" value="&lt;span style=&quot;font-size: 16px&quot;&gt;行动(Action)：&lt;/span&gt;" style="text;html=1;align=center;verticalAlign=middle;resizable=0;points=[];autosize=1;strokeColor=none;fillColor=none;fontFamily=Helvetica;fontStyle=1" vertex="1" parent="1">
          <mxGeometry x="211" y="264" width="119" height="19" as="geometry" />
        </mxCell>
        <mxCell id="swF7MC4VHe0emCzeMFWX-3" value="&lt;font style=&quot;font-size: 16px&quot;&gt;奖励(Reward)：&lt;/font&gt;" style="text;html=1;align=center;verticalAlign=middle;resizable=0;points=[];autosize=1;strokeColor=none;fillColor=none;fontFamily=Helvetica;fontStyle=1" vertex="1" parent="1">
          <mxGeometry x="212" y="122" width="127" height="19" as="geometry" />
        </mxCell>
        <mxCell id="swF7MC4VHe0emCzeMFWX-4" value="R&lt;sub&gt;1&lt;/sub&gt;" style="text;html=1;align=center;verticalAlign=middle;resizable=0;points=[];autosize=1;strokeColor=none;fillColor=none;fontSize=16;fontFamily=Helvetica;fontStyle=1" vertex="1" parent="1">
          <mxGeometry x="320" y="116" width="30" height="30" as="geometry" />
        </mxCell>
        <mxCell id="swF7MC4VHe0emCzeMFWX-5" value="R&lt;span style=&quot;font-size: 13.3333px&quot;&gt;2&lt;/span&gt;" style="text;html=1;align=center;verticalAlign=middle;resizable=0;points=[];autosize=1;strokeColor=none;fillColor=none;fontSize=16;fontFamily=Helvetica;fontStyle=1" vertex="1" parent="1">
          <mxGeometry x="400" y="116" width="30" height="30" as="geometry" />
        </mxCell>
        <mxCell id="swF7MC4VHe0emCzeMFWX-6" value="R&lt;span style=&quot;font-size: 13.3333px&quot;&gt;3&lt;/span&gt;" style="text;html=1;align=center;verticalAlign=middle;resizable=0;points=[];autosize=1;strokeColor=none;fillColor=none;fontSize=16;fontFamily=Helvetica;fontStyle=1" vertex="1" parent="1">
          <mxGeometry x="480" y="116" width="30" height="30" as="geometry" />
        </mxCell>
        <mxCell id="swF7MC4VHe0emCzeMFWX-7" value="R&lt;span style=&quot;font-size: 13.3333px&quot;&gt;4&lt;/span&gt;" style="text;html=1;align=center;verticalAlign=middle;resizable=0;points=[];autosize=1;strokeColor=none;fillColor=none;fontSize=16;fontFamily=Helvetica;fontStyle=1" vertex="1" parent="1">
          <mxGeometry x="560" y="116" width="30" height="30" as="geometry" />
        </mxCell>
        <mxCell id="swF7MC4VHe0emCzeMFWX-9" value="S&lt;span style=&quot;font-size: 13.3333px&quot;&gt;2&lt;/span&gt;" style="text;html=1;align=center;verticalAlign=middle;resizable=0;points=[];autosize=1;strokeColor=none;fillColor=none;fontSize=16;fontFamily=Helvetica;fontStyle=1" vertex="1" parent="1">
          <mxGeometry x="400" y="185" width="30" height="30" as="geometry" />
        </mxCell>
        <mxCell id="swF7MC4VHe0emCzeMFWX-10" value="S&lt;span style=&quot;font-size: 13.3333px&quot;&gt;3&lt;/span&gt;" style="text;html=1;align=center;verticalAlign=middle;resizable=0;points=[];autosize=1;strokeColor=none;fillColor=none;fontSize=16;fontFamily=Helvetica;fontStyle=1" vertex="1" parent="1">
          <mxGeometry x="480" y="185" width="30" height="30" as="geometry" />
        </mxCell>
        <mxCell id="swF7MC4VHe0emCzeMFWX-11" value="S&lt;span style=&quot;font-size: 13.3333px&quot;&gt;4&lt;/span&gt;" style="text;html=1;align=center;verticalAlign=middle;resizable=0;points=[];autosize=1;strokeColor=none;fillColor=none;fontSize=16;fontFamily=Helvetica;fontStyle=1" vertex="1" parent="1">
          <mxGeometry x="560" y="185" width="30" height="30" as="geometry" />
        </mxCell>
        <mxCell id="swF7MC4VHe0emCzeMFWX-13" value="A&lt;span style=&quot;font-size: 13.3333px&quot;&gt;2&lt;/span&gt;" style="text;html=1;align=center;verticalAlign=middle;resizable=0;points=[];autosize=1;strokeColor=none;fillColor=none;fontSize=16;fontFamily=Helvetica;fontStyle=1" vertex="1" parent="1">
          <mxGeometry x="400" y="260" width="30" height="30" as="geometry" />
        </mxCell>
        <mxCell id="swF7MC4VHe0emCzeMFWX-14" value="A&lt;span style=&quot;font-size: 13.3333px&quot;&gt;3&lt;/span&gt;" style="text;html=1;align=center;verticalAlign=middle;resizable=0;points=[];autosize=1;strokeColor=none;fillColor=none;fontSize=16;fontFamily=Helvetica;fontStyle=1" vertex="1" parent="1">
          <mxGeometry x="480" y="260" width="30" height="30" as="geometry" />
        </mxCell>
        <mxCell id="swF7MC4VHe0emCzeMFWX-15" value="A&lt;span style=&quot;font-size: 13.3333px&quot;&gt;4&lt;/span&gt;" style="text;html=1;align=center;verticalAlign=middle;resizable=0;points=[];autosize=1;strokeColor=none;fillColor=none;fontSize=16;fontFamily=Helvetica;fontStyle=1" vertex="1" parent="1">
          <mxGeometry x="560" y="260" width="30" height="30" as="geometry" />
        </mxCell>
        <mxCell id="swF7MC4VHe0emCzeMFWX-17" value="S&lt;span style=&quot;font-size: 13.3333px&quot;&gt;1&lt;/span&gt;" style="text;html=1;align=center;verticalAlign=middle;resizable=0;points=[];autosize=1;strokeColor=none;fillColor=none;fontSize=16;fontFamily=Helvetica;fontStyle=1" vertex="1" parent="1">
          <mxGeometry x="320" y="185" width="30" height="30" as="geometry" />
        </mxCell>
        <mxCell id="swF7MC4VHe0emCzeMFWX-18" value="A&lt;span style=&quot;font-size: 13.3333px&quot;&gt;1&lt;/span&gt;" style="text;html=1;align=center;verticalAlign=middle;resizable=0;points=[];autosize=1;strokeColor=none;fillColor=none;fontSize=16;fontFamily=Helvetica;fontStyle=1" vertex="1" parent="1">
          <mxGeometry x="320" y="260" width="30" height="30" as="geometry" />
        </mxCell>
        <mxCell id="swF7MC4VHe0emCzeMFWX-19" value="" style="shape=flexArrow;endArrow=classic;html=1;rounded=0;fontSize=16;width=7;endSize=8.73;endWidth=5;fontFamily=Helvetica;fontStyle=1" edge="1" parent="1">
          <mxGeometry width="50" height="50" relative="1" as="geometry">
            <mxPoint x="593" y="199" as="sourcePoint" />
            <mxPoint x="643" y="199" as="targetPoint" />
          </mxGeometry>
        </mxCell>
        <mxCell id="swF7MC4VHe0emCzeMFWX-20" value="" style="shape=flexArrow;endArrow=classic;html=1;rounded=0;fontSize=16;width=7;endSize=8.73;endWidth=5;fontFamily=Helvetica;fontStyle=1" edge="1" parent="1">
          <mxGeometry width="50" height="50" relative="1" as="geometry">
            <mxPoint x="350" y="199.5" as="sourcePoint" />
            <mxPoint x="400" y="199.5" as="targetPoint" />
          </mxGeometry>
        </mxCell>
        <mxCell id="swF7MC4VHe0emCzeMFWX-21" value="" style="shape=flexArrow;endArrow=classic;html=1;rounded=0;fontSize=16;width=7;endSize=8.73;endWidth=5;fontFamily=Helvetica;fontStyle=1" edge="1" parent="1">
          <mxGeometry width="50" height="50" relative="1" as="geometry">
            <mxPoint x="350" y="274.5" as="sourcePoint" />
            <mxPoint x="400" y="274.5" as="targetPoint" />
          </mxGeometry>
        </mxCell>
        <mxCell id="swF7MC4VHe0emCzeMFWX-22" value="" style="shape=flexArrow;endArrow=classic;html=1;rounded=0;fontSize=16;width=7;endSize=8.73;endWidth=5;fontFamily=Helvetica;fontStyle=1" edge="1" parent="1">
          <mxGeometry width="50" height="50" relative="1" as="geometry">
            <mxPoint x="350" y="132.5" as="sourcePoint" />
            <mxPoint x="400" y="132.5" as="targetPoint" />
          </mxGeometry>
        </mxCell>
        <mxCell id="swF7MC4VHe0emCzeMFWX-23" value="" style="shape=flexArrow;endArrow=classic;html=1;rounded=0;fontSize=16;width=7;endSize=8.73;endWidth=5;fontFamily=Helvetica;fontStyle=1" edge="1" parent="1">
          <mxGeometry width="50" height="50" relative="1" as="geometry">
            <mxPoint x="429" y="199.5" as="sourcePoint" />
            <mxPoint x="479" y="199.5" as="targetPoint" />
          </mxGeometry>
        </mxCell>
        <mxCell id="swF7MC4VHe0emCzeMFWX-24" value="" style="shape=flexArrow;endArrow=classic;html=1;rounded=0;fontSize=16;width=7;endSize=8.73;endWidth=5;fontFamily=Helvetica;fontStyle=1" edge="1" parent="1">
          <mxGeometry width="50" height="50" relative="1" as="geometry">
            <mxPoint x="429" y="274.5" as="sourcePoint" />
            <mxPoint x="479" y="274.5" as="targetPoint" />
          </mxGeometry>
        </mxCell>
        <mxCell id="swF7MC4VHe0emCzeMFWX-25" value="" style="shape=flexArrow;endArrow=classic;html=1;rounded=0;fontSize=16;width=7;endSize=8.73;endWidth=5;fontFamily=Helvetica;fontStyle=1" edge="1" parent="1">
          <mxGeometry width="50" height="50" relative="1" as="geometry">
            <mxPoint x="429" y="132.5" as="sourcePoint" />
            <mxPoint x="479" y="132.5" as="targetPoint" />
          </mxGeometry>
        </mxCell>
        <mxCell id="swF7MC4VHe0emCzeMFWX-26" value="" style="shape=flexArrow;endArrow=classic;html=1;rounded=0;fontSize=16;width=7;endSize=8.73;endWidth=5;fontFamily=Helvetica;fontStyle=1" edge="1" parent="1">
          <mxGeometry width="50" height="50" relative="1" as="geometry">
            <mxPoint x="510" y="198.5" as="sourcePoint" />
            <mxPoint x="560" y="198.5" as="targetPoint" />
          </mxGeometry>
        </mxCell>
        <mxCell id="swF7MC4VHe0emCzeMFWX-27" value="" style="shape=flexArrow;endArrow=classic;html=1;rounded=0;fontSize=16;width=7;endSize=8.73;endWidth=5;fontFamily=Helvetica;fontStyle=1" edge="1" parent="1">
          <mxGeometry width="50" height="50" relative="1" as="geometry">
            <mxPoint x="510" y="273.5" as="sourcePoint" />
            <mxPoint x="560" y="273.5" as="targetPoint" />
          </mxGeometry>
        </mxCell>
        <mxCell id="swF7MC4VHe0emCzeMFWX-28" value="" style="shape=flexArrow;endArrow=classic;html=1;rounded=0;fontSize=16;width=7;endSize=8.73;endWidth=5;fontFamily=Helvetica;fontStyle=1" edge="1" parent="1">
          <mxGeometry width="50" height="50" relative="1" as="geometry">
            <mxPoint x="510" y="131.5" as="sourcePoint" />
            <mxPoint x="560" y="131.5" as="targetPoint" />
          </mxGeometry>
        </mxCell>
        <mxCell id="swF7MC4VHe0emCzeMFWX-29" value="..." style="text;html=1;align=center;verticalAlign=middle;resizable=0;points=[];autosize=1;strokeColor=none;fillColor=none;fontSize=16;fontFamily=Helvetica;fontStyle=1" vertex="1" parent="1">
          <mxGeometry x="650" y="185" width="30" height="20" as="geometry" />
        </mxCell>
        <mxCell id="swF7MC4VHe0emCzeMFWX-30" value="" style="shape=flexArrow;endArrow=classic;html=1;rounded=0;fontSize=16;width=7;endSize=8.73;endWidth=5;fontFamily=Helvetica;fontStyle=1" edge="1" parent="1">
          <mxGeometry width="50" height="50" relative="1" as="geometry">
            <mxPoint x="335" y="261.5" as="sourcePoint" />
            <mxPoint x="335" y="212" as="targetPoint" />
          </mxGeometry>
        </mxCell>
        <mxCell id="swF7MC4VHe0emCzeMFWX-31" value="" style="shape=flexArrow;endArrow=classic;html=1;rounded=0;fontSize=16;width=7;endSize=8.73;endWidth=5;fontFamily=Helvetica;fontStyle=1" edge="1" parent="1">
          <mxGeometry width="50" height="50" relative="1" as="geometry">
            <mxPoint x="335" y="190.5" as="sourcePoint" />
            <mxPoint x="335" y="141" as="targetPoint" />
          </mxGeometry>
        </mxCell>
        <mxCell id="swF7MC4VHe0emCzeMFWX-32" value="" style="shape=flexArrow;endArrow=classic;html=1;rounded=0;fontSize=16;width=7;endSize=8.73;endWidth=5;fontFamily=Helvetica;fontStyle=1" edge="1" parent="1">
          <mxGeometry width="50" height="50" relative="1" as="geometry">
            <mxPoint x="415" y="263.5" as="sourcePoint" />
            <mxPoint x="415" y="214" as="targetPoint" />
          </mxGeometry>
        </mxCell>
        <mxCell id="swF7MC4VHe0emCzeMFWX-33" value="" style="shape=flexArrow;endArrow=classic;html=1;rounded=0;fontSize=16;width=7;endSize=8.73;endWidth=5;fontFamily=Helvetica;fontStyle=1" edge="1" parent="1">
          <mxGeometry width="50" height="50" relative="1" as="geometry">
            <mxPoint x="496" y="263.5" as="sourcePoint" />
            <mxPoint x="496" y="214" as="targetPoint" />
          </mxGeometry>
        </mxCell>
        <mxCell id="swF7MC4VHe0emCzeMFWX-34" value="" style="shape=flexArrow;endArrow=classic;html=1;rounded=0;fontSize=16;width=7;endSize=8.73;endWidth=5;fontFamily=Helvetica;fontStyle=1" edge="1" parent="1">
          <mxGeometry width="50" height="50" relative="1" as="geometry">
            <mxPoint x="575" y="263.5" as="sourcePoint" />
            <mxPoint x="575" y="214" as="targetPoint" />
          </mxGeometry>
        </mxCell>
        <mxCell id="swF7MC4VHe0emCzeMFWX-35" value="" style="shape=flexArrow;endArrow=classic;html=1;rounded=0;fontSize=16;width=7;endSize=8.73;endWidth=5;fontFamily=Helvetica;fontStyle=1" edge="1" parent="1">
          <mxGeometry width="50" height="50" relative="1" as="geometry">
            <mxPoint x="414" y="190" as="sourcePoint" />
            <mxPoint x="414" y="140.5" as="targetPoint" />
          </mxGeometry>
        </mxCell>
        <mxCell id="swF7MC4VHe0emCzeMFWX-36" value="" style="shape=flexArrow;endArrow=classic;html=1;rounded=0;fontSize=16;width=7;endSize=8.73;endWidth=5;fontFamily=Helvetica;fontStyle=1" edge="1" parent="1">
          <mxGeometry width="50" height="50" relative="1" as="geometry">
            <mxPoint x="495" y="190" as="sourcePoint" />
            <mxPoint x="495" y="140.5" as="targetPoint" />
          </mxGeometry>
        </mxCell>
        <mxCell id="swF7MC4VHe0emCzeMFWX-37" value="" style="shape=flexArrow;endArrow=classic;html=1;rounded=0;fontSize=16;width=7;endSize=8.73;endWidth=5;fontFamily=Helvetica;fontStyle=1" edge="1" parent="1">
          <mxGeometry width="50" height="50" relative="1" as="geometry">
            <mxPoint x="574" y="190" as="sourcePoint" />
            <mxPoint x="574" y="140.5" as="targetPoint" />
          </mxGeometry>
        </mxCell>
        <mxCell id="swF7MC4VHe0emCzeMFWX-38" value="&lt;font style=&quot;font-size: 20px&quot;&gt;MDP:&lt;/font&gt;" style="text;html=1;align=center;verticalAlign=middle;resizable=0;points=[];autosize=1;strokeColor=none;fillColor=none;fontSize=16;fontFamily=Helvetica;fontStyle=1" vertex="1" parent="1">
          <mxGeometry x="210" y="65" width="70" height="30" as="geometry" />
        </mxCell>
        <mxCell id="swF7MC4VHe0emCzeMFWX-39" value="&lt;font style=&quot;font-size: 16px&quot;&gt;&lt;b&gt;驾驶员行为&lt;/b&gt;&lt;/font&gt;" style="text;html=1;strokeColor=none;fillColor=none;align=center;verticalAlign=middle;whiteSpace=wrap;rounded=0;fontFamily=Helvetica;fontSize=20;" vertex="1" parent="1">
          <mxGeometry x="282" y="492.5" width="106" height="30" as="geometry" />
        </mxCell>
        <mxCell id="swF7MC4VHe0emCzeMFWX-40" value="" style="shape=curlyBracket;whiteSpace=wrap;html=1;rounded=1;fontFamily=Helvetica;fontSize=20;fontStyle=1" vertex="1" parent="1">
          <mxGeometry x="380" y="415" width="20" height="185" as="geometry" />
        </mxCell>
        <mxCell id="swF7MC4VHe0emCzeMFWX-41" value="" style="shape=curlyBracket;whiteSpace=wrap;html=1;rounded=1;fontFamily=Helvetica;fontSize=20;fontStyle=1" vertex="1" parent="1">
          <mxGeometry x="480" y="512.5" width="20" height="155" as="geometry" />
        </mxCell>
        <mxCell id="swF7MC4VHe0emCzeMFWX-42" value="" style="shape=curlyBracket;whiteSpace=wrap;html=1;rounded=1;fontFamily=Helvetica;fontSize=20;fontStyle=1" vertex="1" parent="1">
          <mxGeometry x="480" y="360" width="20" height="130" as="geometry" />
        </mxCell>
        <mxCell id="swF7MC4VHe0emCzeMFWX-43" value="控制行为" style="text;html=1;align=center;verticalAlign=middle;resizable=0;points=[];autosize=1;strokeColor=none;fillColor=none;fontSize=16;fontFamily=Helvetica;fontStyle=1" vertex="1" parent="1">
          <mxGeometry x="403" y="414" width="74" height="23" as="geometry" />
        </mxCell>
        <mxCell id="swF7MC4VHe0emCzeMFWX-44" value="观测行为" style="text;html=1;align=center;verticalAlign=middle;resizable=0;points=[];autosize=1;strokeColor=none;fillColor=none;fontSize=16;fontFamily=Helvetica;fontStyle=1" vertex="1" parent="1">
          <mxGeometry x="403" y="579" width="74" height="23" as="geometry" />
        </mxCell>
        <mxCell id="swF7MC4VHe0emCzeMFWX-45" value="加速" style="text;html=1;align=center;verticalAlign=middle;resizable=0;points=[];autosize=1;strokeColor=none;fillColor=none;fontSize=16;fontFamily=Helvetica;fontStyle=1" vertex="1" parent="1">
          <mxGeometry x="502" y="351" width="42" height="23" as="geometry" />
        </mxCell>
        <mxCell id="swF7MC4VHe0emCzeMFWX-46" value="减速" style="text;html=1;align=center;verticalAlign=middle;resizable=0;points=[];autosize=1;strokeColor=none;fillColor=none;fontSize=16;fontFamily=Helvetica;fontStyle=1" vertex="1" parent="1">
          <mxGeometry x="502" y="381" width="42" height="23" as="geometry" />
        </mxCell>
        <mxCell id="swF7MC4VHe0emCzeMFWX-47" value="保持原速" style="text;html=1;align=center;verticalAlign=middle;resizable=0;points=[];autosize=1;strokeColor=none;fillColor=none;fontSize=16;fontFamily=Helvetica;fontStyle=1" vertex="1" parent="1">
          <mxGeometry x="501" y="411" width="74" height="23" as="geometry" />
        </mxCell>
        <mxCell id="swF7MC4VHe0emCzeMFWX-48" value="变换车道至左侧车道" style="text;html=1;align=center;verticalAlign=middle;resizable=0;points=[];autosize=1;strokeColor=none;fillColor=none;fontSize=16;fontFamily=Helvetica;fontStyle=1" vertex="1" parent="1">
          <mxGeometry x="501" y="441" width="154" height="23" as="geometry" />
        </mxCell>
        <mxCell id="swF7MC4VHe0emCzeMFWX-49" value="变换车道至右侧车道" style="text;html=1;align=center;verticalAlign=middle;resizable=0;points=[];autosize=1;strokeColor=none;fillColor=none;fontSize=16;fontFamily=Helvetica;fontStyle=1" vertex="1" parent="1">
          <mxGeometry x="501" y="471" width="154" height="23" as="geometry" />
        </mxCell>
        <mxCell id="swF7MC4VHe0emCzeMFWX-50" value="观察左后视镜" style="text;html=1;align=center;verticalAlign=middle;resizable=0;points=[];autosize=1;strokeColor=none;fillColor=none;fontSize=16;fontFamily=Helvetica;fontStyle=1" vertex="1" parent="1">
          <mxGeometry x="502" y="505.5" width="106" height="23" as="geometry" />
        </mxCell>
        <mxCell id="swF7MC4VHe0emCzeMFWX-51" value="观察内后视镜" style="text;html=1;align=center;verticalAlign=middle;resizable=0;points=[];autosize=1;strokeColor=none;fillColor=none;fontSize=16;fontFamily=Helvetica;fontStyle=1" vertex="1" parent="1">
          <mxGeometry x="502" y="537" width="106" height="23" as="geometry" />
        </mxCell>
        <mxCell id="swF7MC4VHe0emCzeMFWX-52" value="观察右后视镜" style="text;html=1;align=center;verticalAlign=middle;resizable=0;points=[];autosize=1;strokeColor=none;fillColor=none;fontSize=16;fontFamily=Helvetica;fontStyle=1" vertex="1" parent="1">
          <mxGeometry x="501" y="566" width="106" height="23" as="geometry" />
        </mxCell>
        <mxCell id="swF7MC4VHe0emCzeMFWX-53" value="观察左侧车窗" style="text;html=1;align=center;verticalAlign=middle;resizable=0;points=[];autosize=1;strokeColor=none;fillColor=none;fontSize=16;fontFamily=Helvetica;fontStyle=1" vertex="1" parent="1">
          <mxGeometry x="501" y="595" width="106" height="23" as="geometry" />
        </mxCell>
        <mxCell id="swF7MC4VHe0emCzeMFWX-54" value="观察前方" style="text;html=1;align=center;verticalAlign=middle;resizable=0;points=[];autosize=1;strokeColor=none;fillColor=none;fontSize=16;fontFamily=Helvetica;fontStyle=1" vertex="1" parent="1">
          <mxGeometry x="503" y="653" width="74" height="23" as="geometry" />
        </mxCell>
        <mxCell id="swF7MC4VHe0emCzeMFWX-55" value="观察右侧车窗" style="text;html=1;align=center;verticalAlign=middle;resizable=0;points=[];autosize=1;strokeColor=none;fillColor=none;fontSize=16;fontFamily=Helvetica;fontStyle=1" vertex="1" parent="1">
          <mxGeometry x="502" y="623" width="106" height="23" as="geometry" />
        </mxCell>
      </root>
    </mxGraphModel>
  </diagram>
</mxfile>
